<svg width="132" height="57" viewBox="0 0 132 57" fill="none" xmlns="http://www.w3.org/2000/svg">
<g filter="url(#filter0_d)">
<rect x="5" y="2" width="124" height="49" rx="24.5" fill="white"/>
<path d="M44.5 21.5L35.5 30.5" stroke="#333333" stroke-width="2" stroke-linecap="round" stroke-linejoin="round"/>
<path d="M35.5 21.5L44.5 30.5" stroke="#333333" stroke-width="2" stroke-linecap="round" stroke-linejoin="round"/>
<path d="M62.5215 32.2109C65.4395 32.2109 67.4258 30.6729 67.9092 28.0537H65.9492C65.5537 29.583 64.2969 30.4883 62.5303 30.4883C60.2012 30.4883 58.7246 28.6162 58.7246 25.6543C58.7246 22.7188 60.2188 20.8291 62.5215 20.8291C64.2441 20.8291 65.5977 21.8926 65.9492 23.5186H67.9004C67.5664 20.873 65.3955 19.1064 62.5215 19.1064C58.9795 19.1064 56.7119 21.6377 56.7119 25.6543C56.7119 29.6973 58.9619 32.2109 62.5215 32.2109ZM69.5264 32H71.4248V19.3174H69.5264V32ZM77.3486 32.1758C79.9941 32.1758 81.7344 30.3564 81.7344 27.377C81.7344 24.4062 79.9854 22.5869 77.3486 22.5869C74.7119 22.5869 72.9629 24.4062 72.9629 27.377C72.9629 30.3564 74.7031 32.1758 77.3486 32.1758ZM77.3486 30.6113C75.8633 30.6113 74.8965 29.4336 74.8965 27.377C74.8965 25.3291 75.8633 24.1514 77.3486 24.1514C78.834 24.1514 79.8008 25.3291 79.8008 27.377C79.8008 29.4336 78.8428 30.6113 77.3486 30.6113ZM83.0352 25.373C83.0352 26.665 83.8789 27.5352 85.5488 27.9395L87.2012 28.3438C88.168 28.5898 88.5195 28.915 88.5195 29.5039C88.5195 30.251 87.8164 30.7256 86.6738 30.7256C85.5137 30.7256 84.8281 30.2334 84.6787 29.3457H82.7979C82.9473 31.042 84.3975 32.1758 86.5859 32.1758C88.8535 32.1758 90.4268 31.0156 90.4268 29.3281C90.4268 27.9658 89.7236 27.2627 87.8604 26.8145L86.3047 26.4541C85.3467 26.2168 84.8896 25.8301 84.8896 25.2588C84.8896 24.5293 85.5752 24.0283 86.6035 24.0283C87.667 24.0283 88.3438 24.5469 88.4316 25.3818H90.2158C90.1543 23.7383 88.7129 22.5869 86.6562 22.5869C84.4941 22.5869 83.0352 23.7207 83.0352 25.373ZM95.7705 24.1162C97.0977 24.1162 97.9941 25.1094 98.0381 26.5244H93.415C93.5117 25.127 94.4434 24.1162 95.7705 24.1162ZM98.0293 29.2842C97.7744 30.0928 96.9746 30.6377 95.8936 30.6377C94.373 30.6377 93.4062 29.5742 93.4062 27.9658V27.8516H99.9365V27.2012C99.9365 24.3975 98.3369 22.5869 95.7705 22.5869C93.1602 22.5869 91.4902 24.5205 91.4902 27.4209C91.4902 30.3389 93.1338 32.1758 95.8496 32.1758C97.9678 32.1758 99.5674 30.9717 99.8311 29.2842H98.0293Z" fill="#333333"/>
</g>
<defs>
<filter id="filter0_d" x="0" y="0" width="132" height="57" filterUnits="userSpaceOnUse" color-interpolation-filters="sRGB">
<feFlood flood-opacity="0" result="BackgroundImageFix"/>
<feColorMatrix in="SourceAlpha" type="matrix" values="0 0 0 0 0 0 0 0 0 0 0 0 0 0 0 0 0 0 127 0" result="hardAlpha"/>
<feOffset dx="-1" dy="2"/>
<feGaussianBlur stdDeviation="2"/>
<feColorMatrix type="matrix" values="0 0 0 0 0 0 0 0 0 0 0 0 0 0 0 0 0 0 0.25 0"/>
<feBlend mode="normal" in2="BackgroundImageFix" result="effect1_dropShadow"/>
<feBlend mode="normal" in="SourceGraphic" in2="effect1_dropShadow" result="shape"/>
</filter>
</defs>
</svg>
